name rise45.9887peak57.8056fall74.9286.mot
datacolumns 19
datarows 27
range 8.44496700000000 8.48832300000000
endheader
time	ground_force1_vx	ground_force1_vy	ground_force1_vz	ground_force1_px	ground_force1_py	ground_force1_pz	ground_force2_vx	ground_force2_vy	ground_force2_vz	ground_force2_px	ground_force2_py	ground_force2_pz	ground_torque1_x	ground_torque1_y	ground_torque1_z	ground_torque2_x	ground_torque2_y	ground_torque2_z	
8.44496700000000	-40.53522600000000	807.18393500000002	54.24979500000000	0.15319800000000	0.00000000000000	0.10452700000000	0.00000000000000	0.00000000000000	0.00000000000000	0.00000000000000	0.00000000000000	0.00000000000000	0.00000000000000	25.35078000000000	0.00000000000000	0.00000000000000	0.00000000000000	0.00000000000000	
8.44663800000000	-41.12697600000000	807.28776100000005	54.27292000000000	0.15218600000000	0.00000000000000	0.10445100000000	0.00000000000000	0.00000000000000	0.00000000000000	0.00000000000000	0.00000000000000	0.00000000000000	0.00000000000000	25.30150700000000	0.00000000000000	0.00000000000000	0.00000000000000	0.00000000000000	
8.44830800000000	-41.73225500000000	807.30251299999998	54.28485300000000	0.15118300000000	0.00000000000000	0.10437400000000	-0.92119900000000	3.68515600000000	0.57017200000000	0.00000000000000	0.00000000000000	0.00000000000000	0.00000000000000	25.25132900000000	0.00000000000000	0.00000000000000	0.13603400000000	0.00000000000000	
8.44997400000000	-42.35141700000000	807.22415699999999	54.28498000000000	0.15018700000000	0.00000000000000	0.10429500000000	-1.50302200000000	6.98989900000000	0.97375200000000	0.00000000000000	0.00000000000000	0.00000000000000	0.00000000000000	25.20034200000000	0.00000000000000	0.00000000000000	0.24357400000000	0.00000000000000	
8.45164000000000	-42.98477100000000	807.04864599999996	54.27268400000000	0.14920000000000	0.00000000000000	0.10421400000000	-2.16622900000000	10.96686000000000	1.44299800000000	0.00000000000000	0.00000000000000	0.00000000000000	0.00000000000000	25.14863300000000	0.00000000000000	0.00000000000000	0.37069900000000	0.00000000000000	
8.45330500000000	-43.63257900000000	806.77192400000001	54.24735300000000	0.14822100000000	0.00000000000000	0.10413100000000	-2.89192900000000	15.56914100000000	1.96741300000000	0.00000000000000	0.00000000000000	0.00000000000000	0.00000000000000	25.09628300000000	0.00000000000000	0.00000000000000	0.51519000000000	0.00000000000000	
8.45496800000000	-44.29505500000000	806.38993100000005	54.20837900000000	0.14725200000000	0.00000000000000	0.10404500000000	-3.65602800000000	20.71959000000000	2.53283800000000	0.00000000000000	0.00000000000000	0.00000000000000	0.00000000000000	25.04336900000000	0.00000000000000	0.00000000000000	0.67383600000000	0.00000000000000	
8.45663200000000	-44.97235700000000	805.89860899999996	54.15515800000000	0.14629300000000	0.00000000000000	0.10395800000000	-4.43076200000000	26.31651600000000	3.12237900000000	0.35671300000000	0.00000000000000	-0.08380500000000	0.00000000000000	24.98995500000000	0.00000000000000	0.00000000000000	1.58512000000000	0.00000000000000	
8.45830400000000	-45.66458800000000	805.29390300000000	54.08709800000000	0.14534300000000	0.00000000000000	0.10386800000000	-5.18667500000000	32.24209600000000	3.71764900000000	0.36274400000000	0.00000000000000	-0.08406700000000	0.00000000000000	24.93610100000000	0.00000000000000	0.00000000000000	1.92968400000000	0.00000000000000	
8.45997400000000	-46.37178900000000	804.57176900000002	54.00361400000000	0.14440300000000	0.00000000000000	0.10377600000000	-5.89477300000000	38.37235800000000	4.30016300000000	0.36831300000000	0.00000000000000	-0.08430900000000	0.00000000000000	24.88185600000000	0.00000000000000	0.00000000000000	2.27960400000000	0.00000000000000	
8.46163300000000	-47.09393900000000	803.72817699999996	53.90413700000000	0.14347200000000	0.00000000000000	0.10368200000000	-6.52858800000000	44.58733600000000	4.85269600000000	0.37347700000000	0.00000000000000	-0.08453400000000	0.00000000000000	24.82726000000000	0.00000000000000	0.00000000000000	2.62561000000000	0.00000000000000	
8.46330800000000	-47.83095300000000	802.75911499999995	53.78811300000000	0.14255200000000	0.00000000000000	0.10358600000000	-7.06586600000000	50.78003200000000	5.36042700000000	0.37828000000000	0.00000000000000	-0.08474600000000	0.00000000000000	24.77234500000000	0.00000000000000	0.00000000000000	2.95928700000000	0.00000000000000	
8.46497400000000	-48.58267400000000	801.66059900000005	53.65500500000000	0.14164100000000	0.00000000000000	0.10348800000000	-7.48972800000000	56.86326200000000	5.81175500000000	0.38275800000000	0.00000000000000	-0.08494900000000	0.00000000000000	24.71712900000000	0.00000000000000	0.00000000000000	3.27359100000000	0.00000000000000	
8.46663800000000	-49.34887300000000	800.42867100000001	53.50429800000000	0.14074000000000	0.00000000000000	0.10338700000000	-7.78923400000000	62.77391000000000	6.19873200000000	0.38694300000000	0.00000000000000	-0.08514300000000	0.00000000000000	24.66162400000000	0.00000000000000	0.00000000000000	3.56318800000000	0.00000000000000	
8.46830200000000	-50.12925100000000	799.05941299999995	53.33549800000000	0.13984900000000	0.00000000000000	0.10328500000000	-7.95938200000000	68.47454399999999	6.51714500000000	0.39086000000000	0.00000000000000	-0.08533100000000	0.00000000000000	24.60582700000000	0.00000000000000	0.00000000000000	3.82460000000000	0.00000000000000	
8.46997200000000	-50.92342800000000	797.54894300000001	53.14813700000000	0.13896700000000	0.00000000000000	0.10318000000000	-8.00062700000000	73.95266100000001	6.76626300000000	0.39453100000000	0.00000000000000	-0.08551500000000	0.00000000000000	24.54972800000000	0.00000000000000	0.00000000000000	4.05616800000000	0.00000000000000	
8.47163200000000	-51.73094700000000	795.89342999999997	52.94177300000000	0.13809400000000	0.00000000000000	0.10307300000000	-7.91803400000000	79.21800900000000	6.94834900000000	0.39797400000000	0.00000000000000	-0.08569500000000	0.00000000000000	24.49330200000000	0.00000000000000	0.00000000000000	4.25787700000000	0.00000000000000	
8.47330400000000	-52.55127000000000	794.08909300000005	52.71599400000000	0.13723000000000	0.00000000000000	0.10296400000000	-7.72020600000000	84.29854800000000	7.06800800000000	0.40120600000000	0.00000000000000	-0.08587200000000	0.00000000000000	24.43651400000000	0.00000000000000	0.00000000000000	4.43106600000000	0.00000000000000	
8.47497000000000	-53.38377700000000	792.13221299999998	52.47041900000000	0.13637400000000	0.00000000000000	0.10285300000000	-7.41810400000000	89.23561300000000	7.13145800000000	0.40424000000000	0.00000000000000	-0.08604900000000	0.00000000000000	24.37931700000000	0.00000000000000	0.00000000000000	4.57808400000000	0.00000000000000	
8.47663500000000	-54.22776100000000	790.01913200000001	52.20470300000000	0.13552600000000	0.00000000000000	0.10274000000000	-7.02388900000000	94.07882300000000	7.14579000000000	0.40708900000000	0.00000000000000	-0.08622400000000	0.00000000000000	24.32165100000000	0.00000000000000	0.00000000000000	4.70191000000000	0.00000000000000	
8.47830300000000	-55.08243400000000	787.74626699999999	51.91853200000000	0.13468600000000	0.00000000000000	0.10262500000000	-6.54986900000000	98.88119399999999	7.11828900000000	0.40976200000000	0.00000000000000	-0.08640000000000	0.00000000000000	24.26344600000000	0.00000000000000	0.00000000000000	4.80579300000000	0.00000000000000	
8.47998400000000	-55.94691600000000	785.31011200000000	51.61163300000000	0.13385300000000	0.00000000000000	0.10250800000000	-6.00761200000000	103.69480900000001	7.05585700000000	0.41226800000000	0.00000000000000	-0.08657600000000	0.00000000000000	24.20461700000000	0.00000000000000	0.00000000000000	4.89292900000000	0.00000000000000	
8.48163500000000	-56.82024300000000	782.70724600000005	51.28377000000000	0.13302700000000	0.00000000000000	0.10238900000000	-5.40727600000000	108.56729300000001	6.96455900000000	0.41461700000000	0.00000000000000	-0.08675400000000	0.00000000000000	24.14506800000000	0.00000000000000	0.00000000000000	4.96619900000000	0.00000000000000	
8.48330200000000	-57.70136200000000	779.93433900000002	50.93474900000000	0.13220600000000	0.00000000000000	0.10226900000000	-4.75717000000000	113.53921200000001	6.84931700000000	0.41681400000000	0.00000000000000	-0.08693300000000	0.00000000000000	24.08469300000000	0.00000000000000	0.00000000000000	5.02797100000000	0.00000000000000	
8.48496600000000	-58.58913000000000	776.98815900000000	50.56441700000000	0.13139000000000	0.00000000000000	0.10214700000000	-4.06352700000000	118.64245400000000	6.71374000000000	0.41886700000000	0.00000000000000	-0.08711300000000	0.00000000000000	24.02337100000000	0.00000000000000	0.00000000000000	5.07998800000000	0.00000000000000	
8.48663700000000	-59.48231800000000	773.86558300000002	50.17266600000000	0.13058000000000	0.00000000000000	0.10202400000000	-3.33048200000000	123.89951000000001	6.56008800000000	0.42078000000000	0.00000000000000	-0.08729600000000	0.00000000000000	23.96097000000000	0.00000000000000	0.00000000000000	5.12331300000000	0.00000000000000	
8.48832300000000	-60.37960700000000	770.56359699999996	49.75943100000000	0.12977300000000	0.00000000000000	0.10189900000000	-2.56021500000000	129.32357700000000	6.38933900000000	0.42256100000000	0.00000000000000	-0.08748100000000	0.00000000000000	23.89734700000000	0.00000000000000	0.00000000000000	5.15834300000000	0.00000000000000	
